<svg height="480pt" viewBox="-31 0 479 480" width="480pt" xmlns="http://www.w3.org/2000/svg"><path d="m408.5 440v-352c0-17.671875-14.328125-32-32-32h-64l48 48v288c0 17.671875-14.328125 32-32 32h-272v16c0 17.671875 14.328125 32 32 32h288c17.671875 0 32-14.328125 32-32zm0 0" fill="#bddbff"/><path d="m296.5 104h64l-96-96v64c0 17.671875 14.328125 32 32 32zm0 0" fill="#bddbff"/><path d="m96.5 120c13.253906 0 24-10.746094 24-24v-16c0-13.253906-10.746094-24-24-24s-24 10.746094-24 24v16c0 13.253906 10.746094 24 24 24zm0 0" fill="#bddbff"/><path d="m72.597656 136.097656c-10.105468 7.496094-16.070312 19.324219-16.097656 31.902344v16h40v-24zm0 0" fill="#bddbff"/><path d="m120.402344 136.097656-23.902344 23.902344v24h40v-16c-.027344-12.578125-5.992188-24.40625-16.097656-31.902344zm0 0" fill="#bddbff"/><g fill="#3d9ae2"><path d="m176.5 112h16v16h-16zm0 0"/><path d="m208.5 112h48v16h-48zm0 0"/><path d="m176.5 144h80v16h-80zm0 0"/><path d="m176.5 176h80v16h-80zm0 0"/><path d="m48.5 240h80v16h-80zm0 0"/><path d="m144.5 240h176v16h-176zm0 0"/><path d="m48.5 272h80v16h-80zm0 0"/><path d="m144.5 272h176v16h-176zm0 0"/><path d="m48.5 304h80v16h-80zm0 0"/><path d="m144.5 304h176v16h-176zm0 0"/><path d="m48.5 336h80v16h-80zm0 0"/><path d="m144.5 336h176v16h-176zm0 0"/><path d="m48.5 368h80v16h-80zm0 0"/><path d="m144.5 368h176v16h-176zm0 0"/><path d="m376.5 48h-60.6875l-45.65625-45.65625c-1.5-1.5-3.535156-2.34375-5.65625-2.34375h-224c-22.082031.0273438-39.972656 17.917969-40 40v352c.027344 22.082031 17.917969 39.972656 40 40h8v8c.027344 22.082031 17.917969 39.972656 40 40h288c22.082031-.027344 39.972656-17.917969 40-40v-352c-.027344-22.082031-17.917969-39.972656-40-40zm-104-20.6875 68.6875 68.6875h-44.6875c-13.253906 0-24-10.746094-24-24zm-256 364.6875v-352c0-13.253906 10.746094-24 24-24h216v56c.027344 22.082031 17.917969 39.972656 40 40h56v280c0 13.253906-10.746094 24-24 24h-288c-13.253906 0-24-10.746094-24-24zm384 48c0 13.253906-10.746094 24-24 24h-288c-13.253906 0-24-10.746094-24-24v-8h264c22.082031-.027344 39.972656-17.917969 40-40v-288c0-2.121094-.84375-4.15625-2.34375-5.65625l-34.34375-34.34375h44.6875c13.253906 0 24 10.746094 24 24zm0 0"/><path d="m144.5 168c-.027344-20.003906-12.460938-37.894531-31.199219-44.894531 9.417969-5.796875 15.167969-16.046875 15.199219-27.105469v-16c0-17.671875-14.328125-32-32-32s-32 14.328125-32 32v16c.03125 11.058594 5.78125 21.308594 15.199219 27.105469-18.738281 7-31.171875 24.890625-31.199219 44.894531v16c0 4.417969 3.582031 8 8 8h80c4.417969 0 8-3.582031 8-8zm-48-19.3125-10.710938-10.710938c6.898438-2.636718 14.523438-2.636718 21.421876 0zm-16-68.6875c0-8.835938 7.164062-16 16-16s16 7.164062 16 16v16c0 8.835938-7.164062 16-16 16s-16-7.164062-16-16zm-16 88c.03125-7.660156 2.832031-15.046875 7.886719-20.800781l16.113281 16.113281v12.6875h-24zm64 8h-24v-12.6875l16.113281-16.113281c5.054688 5.753906 7.855469 13.140625 7.886719 20.800781zm0 0"/></g></svg>